<mxfile host="app.diagrams.net" agent="Mozilla/5.0 (Windows NT 10.0; Win64; x64) AppleWebKit/537.36 (KHTML, like Gecko) Chrome/134.0.0.0 Safari/537.36" version="26.0.16">
  <diagram name="Page-1" id="dNa7RBWrbdrzGNvt-zrE">
    <mxGraphModel dx="2327" dy="589" grid="1" gridSize="10" guides="1" tooltips="1" connect="1" arrows="1" fold="1" page="1" pageScale="1" pageWidth="850" pageHeight="1100" math="0" shadow="0">
      <root>
        <mxCell id="0" />
        <mxCell id="1" parent="0" />
        <mxCell id="z-L5VVD6MoADbcWJSD5d-3" value="" style="shape=image;verticalLabelPosition=bottom;labelBackgroundColor=default;verticalAlign=top;aspect=fixed;imageAspect=0;image=data:image/webp,UklGRmYvAABXRUJQVlA4WAoAAAA4AAAAVwIA0AAASUNDUKgBAAAAAAGobGNtcwIQAABtbnRyUkdCIFhZWiAH3AABABkAAwApADlhY3NwQVBQTAAAAAAAAAAAAAAAAAAAAAAAAAAAAAAAAAAA9tYAAQAAAADTLWxjbXMAAAAAAAAAAAAAAAAAAAAAAAAAAAAAAAAAAAAAAAAAAAAAAAAAAAAAAAAAAAAAAAlkZXNjAAAA8AAAAF9jcHJ0AAABTAAAAAx3dHB0AAABWAAAABRyWFlaAAABbAAAABRnWFlaAAABgAAAABRiWFlaAAABlAAAABRyVFJDAAABDAAAAEBnVFJDAAABDAAAAEBiVFJDAAABDAAAAEBkZXNjAAAAAAAAAAVjMmNpAAAAAAAAAAAAAAAAY3VydgAAAAAAAAAaAAAAywHJA2MFkghrC/YQPxVRGzQh8SmQMhg7kkYFUXdd7WtwegWJsZp8rGm/fdPD6TD//3RleHQAAAAAQ0MwAFhZWiAAAAAAAAD21gABAAAAANMtWFlaIAAAAAAAAG+iAAA49QAAA5BYWVogAAAAAAAAYpkAALeFAAAY2lhZWiAAAAAAAAAkoAAAD4QAALbPQUxQSHALAAAB8Ift/yKl///dYUHsBAtQ7O7uTmzsbsHFxcAEi6dPu1uxWwF1sbu7u5MwsWh5wvyxszvOndse83glETEBlOb/NP+n+T/N/2n+/5/QuXYYjUZjUC6T5kZTfyJfo+LCVNwo21auslG2DtFoo9FoDG2PoHuo0eLQPjIeoUaLQ1vJLDBaHuSIa7rRtJlJS6PloV1FiEuSZOpi4iWZniTaJymuSrUl2fc5THSXJNkeRMGS6QQEMySFC2SmSAoNMg8lhQVwXZRMPU1GSAoDRIjzd5M4Z5PBMgeIdiirRDXkpMUmXpJ8F6JtMqMRTFEyU2aCEi+Z6wriXHEdlxlk4qnEX0T9rkaU/8u/UeTnI120pU2S9Zj8Z+5aI29x42jSz1yIsiqWSL1rpFiFBTKNkxUYZJYqkApYhWoJCgLESfLVs+fOnX5mrlIbd/eWM2Set3Z3d3fPalHkMwnZ91GeXqb6GjI0y9znrUFBIS1ksj40d2N7UPB2R6tA48x93x4UFOIhTiw/QPKtZK6SvCUWI3pnQwodrpqJbkAWVk8wcz0dQbfM9piZ+PYkSNXoKHPD2oRlVUJlfslJHwtbQOPNSEHWg9w+y0k/ywuprwlyv79aD/I0I13JYIHuuBlpEiIbezs7O3udIupmRnqYQ0Qd+0tu/n4rQiFmpLUWkNsXM8mtAdV/+ODBg4fbldE6M9IeEXUuwz2TF5kPKdHjeEd/0OGhGWmYBdQyXk76VBRPW8n0JtERJXTVjDRRoCQO69ylS6fVDC5RvX8kSWpFJ5RcXbPOdP2SbKnuR4Cf7NRGMlnG+/uNO2wuvrpMtal+fuPDzEiXM8Jxl/m8bm24JRlHTvYbH2wuuZk4ictGRNSbBS2RpI2kzPzvfKnOwoUyrpJCg4yvZPk/BUBZKOMUL1keIFCcTQbzyBb21UmFqLw4Zso4xynwkhmhIM7VKjh+VOAvpKh9D/o3Fdl/g3BNMZFcTYbLnDbTVeaJmdoy98xdlulJtFdBUr5UNFPJQhlXSaGPjK8CqSCcDkq8TJziFMwQIZkGe+v13sMymZQ26PV6g7uZwiP0er2hi5k8er1eb+hkrp1Br9cbihI1M+gt9R6UMRVV89FbbKgpk2mYt95Sn7Iy5X30lnoPywynoEFvsaGUSfoB3npLfaqKkDT/W8EWXTpD71pfrSZdO0PvWkit+l07Q+/SQts9lsAfVOuKBL6nWgcl8I+03Rl0K9UKQtdQrRXoTmu7feimqLUKXHIFtaag26vt1qDzVGsGuGg3tTzRrdZ2Aeg81PIB9zG7Wh7oArSdHl0DtXqBe26nVgN0w7VdV3DJZdRqDu4yqV0mGVwXbdcEXLSzWtXAharmHA2usbarkIwtLLtaJeKxbVQtexi25PLazjUO20M7tfJ+xTZXNbuH2GJdtF2OD9gukNoZ32PzVY0uYIvMoe3SPca2TzWb+9j6qLcP26N02o4uY1utGp3F1lK91dgukcY/gG26eiHQUmqoNx1bqNZbh81bvUBo8cXV88YWqPX+xtZNvVnQvjmp1w3b31rPB1tj9UZBe5NBvcbYDFqvF7Zy6vWBdstWvXLYemq95tBiCqrXCtpxUr9gDLRmWq8StIic6tWEtotBzghoFbWeWzyyJ/bqlUpEtpSB/RNk8W5az/Ejsiukfr4fyPwY0BVkH3JpPYfnyIwMMkcgG8LBiOyZg9aj68gCGdg9RNaBQyCya6T5DyObyYDOI6vPYSayg9pvI7KRHIzAkspyGIlsg/abg6wnhw3AovNz6IlstvbzRdaUwxxgEVk5NEU2Rvv1A5ZSiYMvsAd2HCqlAOuj/VoBiy3MoR+w88SxcCywFtqvKrCPuTi0BbafRa6PwKpov6IJuF7Yc6gLbC0L+xe44otqv9yfcV0jjqWTcM1gQddwfcqt/dK/xnWQRb5oXAYeB3G9ctB+dAvXRhbZInD14LEJ100SgEdxzWWR7hGu5jzm4ToiArbi8mVBl3BV5uGLa4sIWIirD49DsBLcePTBtUAETMDVgsdmWJ8cebTANV4EDISVUo3HfFjP0/OolgKrvwhwhxVbjMd4WNeJZ7E4WK1FQE1YXxx5DIJ1lInjF1g1REDJRFSvHHh0gLWFicNrVAklREDeKFTXbXjUhzWfic11VF/ziIAM71AdIZ5lklGNY0JHUL1NLwJs7qDaysQlBtVALttQ3bYRAXQC1QImOSJRteWyENVxEoK7UI1j4vAEVU0u41HtEANLUfVjQtdAJZXg0h/VEjHgj6o1l6OgovJzcUc1SQwMQVWTy1ZQbzNzqYVqkBhoDyqhOJeFoO7bcCmRAKqtGKgH6psTl0mgzhBXp++g6oiBMr8xvcnIZRioPWwyvsGUWEoM5PuB6aYtFw9QK9jY3sL0PY8YyBSG6QRxbQhqGhs6gel9JjGgu4dpB5tyoIbz2YXpjk4M0GlMi9m4xWLqwmcJplMkCIMxTWTj+BFTAz6TMO0RBSsxDWTj8AJScnk+gzAtFwVTMLVjQ7cg/XLj0x6TvyjwxFSHzzFIkdn51MU0RBR4QEoqwWc7pGc6PiWTIHUUBQ0h/cjDZymky8Q3709I9UVBuX8Qvc3MZwqkUEZZ3iFKKiMK8kcjumPLZzikDYx0dxH9yicKsoUjOk18u0Caw4jOIgrLKgrsHyDazagRpDGcghDdtxMFdB7RMkaVUhD15rQc0TkShvsQ+TMqEouoBafJiELEwRpEQxk5fUZUjdMwRCvFQQCiTowcXgOKK8bJA9E0ceCNqB4jug0oyolTfUTDxUE3QMmlOJ0A9CY9p9IpgLqIgyaAfjpz2gXopg0nl1+AGomDCil43mXjtBLQceKcLQxPSllx4BqL54GOUwCgnax0D/HEuIiDnJF4zhPnEYCWsKILeMJziIN0T/AEs+oOyI9XCJ5H9uKAruBZyaopoMG8VuO5RAIxFM80VlVT8LTnFYBnv0hYh2c4q2JxeOrx8sazRiTMxNOFlVMUnKSyvLrh+UskjMTTgFWGd3B+5ePVCI9BJPSCk1yWle0dOOFZeJVLgdNDJDSH87MAKzoN574dr4LRcJqIhEpwIrLxCoZzjnjniIBTXiQUjkPzxJbXGjj7memeool1EwmOH9FcJN4z4KxlRpfRROYSCeleoNnLzAfOX9z2o3lmLxLoOpq1zHrC8eYWiOYqCcVDaGYwawmnO7eZaELFwiY0BmY14DTjNhLNerEwF013ZiUSwKRU4tYDzWyx4IumMbPcP8DEF+TWBM1osdAfTSVmmb+A+ZWLW2U0fcRCk2Qsn12Z6QI/Q4naYs+tYBSWpAZiwa6iIfQDiucbe7nZMCNybL3w9m8IKY9XdsxL7G2K9N/6CkV4iFdZnVgwzdF01pXY1BZ1bGx1B0qltqU9g8NT2Y/jY6uko9Saodakk99TW/SFgAbZSFgW7bf1VapJvL24bV5K5dkaBlyITi1PA7s4U2p37rTiQVKqebahpxuJzow1xh/7yu/drsElCKRbr40v2X07Pq6qA2HUlfEKieD36eCoyg4kSPO0W3ovic/Pc1PrZyWoGWqMPx7F5+laj3yENXuTmZdj+CTcWtDaicSqrqxXcBiD5EerOrsQ5Lztlt1LUu/n6Yk10hPkQj03POPwevvAEjYkZLPWn34hWo2PB3wq2hNwXTlv4wc1nq3r6kLIHaqNPRqlxo9TfrUzktB167nh2R+JvTq7eS6ygjmbzboa9yd+nJpQ3YGsYN62i24n/ol/Hqz0cCER7FB51MFPlr3a0rcwWdEi/ba9sezlhu6uZEVLDN71zrKIvV5ldSSQnVovuJVoEnV8Qs2MZHUz1fE//cPk5xm/WhnI6matP+3cT5PYKzOb5CDxbFNi0PZlbfOQ1Xb2WLuxuytZbdcugRt7FqI0/6f5P83/af5P8///ygZWUDggXiEAADCdAJ0BKlgC0QA+ORqKQyIhoRSLnVggA4Sm7qFV0BCM7gP0r/gGeCbAfsBpDa1bKX88/AD9T/7tgeLfCi/+vfir3e2euxfkV/av2h+ZCt/0L+1/oL+2/tt0GlWecLyb/rf75+7n+p+cP+T/yHsZ/M393/Ov6BP65/a/73+Yv9X+Lb9wvcj/a/uA+An8i/o3/I/vX74fLZ/jf+x/gvcl/Zv71/1/8B/oPkA/vf9R9cP/qexd/Y/9t7Af8V/r//Z9n//g/+D/Pfv/9H/90/1n7VfA5+xv/2/cz4AP//7Xv8A///Vj9Zv69+Sfg1/j/yw7Azud7Jf1zm3R3fmH2w/XeuD98/03918hfkX/VeoL7Y/x+9ygA/IP53/sP694r39n6HfZX2AP1m/33rz/zvEz+kf7P2A/4v/V/+B/Zf3Y/3vyGf9v+w9D31F/5fcN/mf9i/4v5294j9wvYl/Xw2VisVisVisVisVisVisVisVisVisVisVisVisVisVisVisVisVisVisVisVisViRBrisQJ52/yzQ7D+Hm0L+AFSeOBRmN59z5UFgDYTdcr8PrukYf6KS/CF/Iedg7OJm5xiGsJPpDZSQOt/25anbZXINwejAMlBe36U87ksW3f+YWmFuv1VKJRKFwCNTQJP9EAuLtNTKpDLwaAzjf7YXqhzuVLIPdg1jyamusW+q2JVhkOPrpz/8eNBVac7wL4sbcDB73itBYZQpyRu4zTJ4sUl9wOu/SQowl97/SXRV+l3oehEF6V5H4t4+7hwxCSFKAOUxuAb/W2ZG8tZuUqS1SMIDmkaU6J+SMEOZ4d6x/+0JyQIwgObepUkHD02ejIXDKbHY7HY7HYxHfe+LlSG0bY4qa9tou3Ihl3UZ7bA5uBBHW92Vbng+6Qv6r2as2lRjTUyj21Yipi5o4zrPciCuygfP+U5yjLUEvXIo/36tkP89wulffY1Go1Go1CA7mdoXM+cJrBtcw52GBsgB2QbXL67lXdvagpbrVLoXTk4Zn/RjX3WyOflx75+mVHPaIgeJZK58n/16E1bdZqOAY1NPw1ehErliVrumTzcIL9CmpWCkwRVKDZvYUmdSixWKxViZDRSI7cyVeY3hs/FXArjI5gUYU4obQjoIG/8oayGD8dCnXR2E6GJ7KXleNfEgljbGrcfc+yM1Tg2Y6a+WdLSONniV320/EdTvzm+PhQbJCsxNz2YGUymT52GNwKvn/fy85ctqUU0byTJvA34F/oWP2UtsvG6i+iWKyoNKa/oynguLvsxEH4j5DJhyCn1mlOOE1l4n7I6rc795udq7mlyO7yk1wRdM0yfkvM/o/hEjeprZ1N7T8Wf9+3TX6Bp8pBW6shfs9nWAD6Qubow4FVHl5zhJ2hbn/OizWopVcduqjHWXj/+AkX+n+q4a3StH5bFRUYoslmTpPiBgzhxZAK5YAWEZUl5n9H8Ikb1NbOpwDniPhiVqa5F/60plmI9gygq7vGcNs/9bh3unD2T8lFZdljACgfyGWKzVNHlA1B2ulaIsQQu1qPSh/h+VKfHpVFdu7fxPfEJlW4me/88a2Y0Fw46guUGyQrMTdUvx+Px+MkrklLH4fXDuTAnNyg2SFJcn7Ofh9godL0BSXp1xOJxOJxOJxOJxOJxOJxOJxOJxOJxOJxOJxOJxOJxOJxOJxOJxOJxOJxFAAD+/8kwAAAAACp5/R+d33KV/Y3msnB//WnuKS0/ti3dXBg35fCw9FWrKfuWfqC5fhhUmSZzJf70CpnGebYt7+H57gmkrPPzV2cej9+h3QPxRwuw/at/5ZhPjNYGIMy7Rn/3+O+a4l6srn1vKzUg6vCEjBO+D3Fngr8pPL8lxszBEm5c6uy0/PK1ofpPSqS+J+Lh/7fieIPzR8lWRPxt8Z8iq+uQLZwOXhtZOcRcmadIUvUiGO2BBmJ+//K4Y3GSO2zd0/9/j/H4P0gC71PPhWpCbt0FcVR8faOja19q+K7HvuSQf58n6cM7Unjqu14HP/4b06DvRVAonn5R4p+2GBs2GZ6teO7OtzENfJI3JW+jxAwzwrsuDCmxbmn7x9u2/8jnDODCB/N2w4zmioC771iJ1Ek4lON031oh6YcPCHvmjmRE0SGaOllZo3Esb523g/zJdNJewi6ISz8089hh0cxAb08y4Zn/udIlB/nJZ6oapZhmCr0jSoPB2wflNUXr/rI12DrWah1W/pQeaEJHV9qozupvWFg2Ypu2CxyRlBbHvtz6vfoZboNImfQ4EA6BWxgSadgYo8dI+zwwzp+36PvBrxng+cwpRT/uYwSx98g53r3h/9mQZMZEoNjij0/A/Jj5rB6HhTefY6K0hTLZ/UE8AdXJh3GHlc5FtGPHvNvBR+tFYIBF5g2HSI5fSUbDCeSsjRb7K+uoj7u1w1mkX/bXxcBkVn5qGYO8zaxPNbuKOMqrdfWnfWG/RB+7WVHh579XfH2S3g6jinIOpJvwtFhrWotmAsvuoZ4nVovBHcdKFmsCPhzh1xiFO2JhVLMWpXnqw8SV2QDFFUT5O2BA+rGmXCgCnYNAxLFKdK3YNFq8eHX+YtjDAEPuIG0RtTk3lLhuFqKkCbBhbt9ZDXCTT93uD761+23lSqJSy5a1qtR3U6b4I7hZ6b306JX48d36C0ChWu0Y7mgoimDZchdE/xltTuPwHqRvi5vWtfLCDec6srGFQXRBCsLMLGG396YwN0T9VW5zQDXfJ+Avam6oyGr9p2s6wI9NB9iBlGxhFh/TePZ9NMrRBORoTfSl+m4vhifAIt5FXhyMxAn6YuHxJytZ8HbJ9ytiXWYmAai2GNP4E276cA7enYog1WI+3Ch43095vDEWFEHN8anDupX5v492KwzzEL+Vf5iRDe62wTzv1PW5QfsQjekrUVYgncwjaqiROMkCoZ1PlTWBrhbXKw/5E8FfFfzNzfkYxn+LuwMLXX6q6Il1t6evCtgK7ZdSQK6mnuD+my7CrPok3t/HGMnWDl+9cynB8TgX+h4Fo5fYDl0Q149KW/roXV+QBEvNeSrTkw99XosVSAwoVZR+axExTUcNRHVPXmXa/ZVRikaCn6F3GBWOmiJxqg2NBhCT1CshmqsyM0ppxOghNDQS0QNORq+mfNN/mRjOXCEAfFjjOJabtYie4dR3mTqfcDcDrtMcWBT6vmHOZlHOiO8QObxeB8/H//4mln7HwrMmot08UCDNJlVwGuAghAlJESORYs4vrOV8ueiJHXNLZxMxIR34Y70GY/2cKf0V/rsz8CNLM/yupk7h4y2zTGA0ssmdihv8XxuOMx8ngILzS/2N7vLzaAByDLZthCNvqiYVRWtf7WSpiBC+j6FZhc/c59givaU8P9bMvqnNFHMjYNRXaRgrQFRzEOTQWkOTUVh7eqWcMA7jdrqDxuLyuG8UALFDZtc3mFMrhtp2ZgUezhIULjl9r7fTeo1dZnnFlfbJbhk3oNW3tW+v3mVeqnwlaxtInYCWUsYmdjyhGtOGm9JCkn38QnprcL25gtmNSY5H1mJlKxdiSaR7vE4fOEJElygSZQehZSK49dGPkLxNZfeKXoFyvKTtUQlkuVbw7lTzuqxc7dKCuAVgYmwx/C/ouf4JuYkvdeDWWilcUmKy6CMdlwd/ZTTnawjb1eI/A6pJFwOSS+ZsT+7eQaLgkjTuXk7OQY/+ODWrNenIcsidj4uysWHnlSq/r1O7Q9O6GTN9JzXXKLkgtIkJuentitbkOqQz0sN72+wKsyjo3j7TiC6kt2fdr107wsFDHFAC0MvVcu7efHshaadJICkeikYj9Kero0YPuT2VnT2aOxUZ57Wyw8LiQDfIX13cHWVSBg0OU5m9PQV6eDFB++Yvc0K1Kxbz9zzwB7OLGeCJCDMtN4q/2bGs6RCAJ+3YKtQHMQA7xAwrj5rtjoOrEAMruR+z9hm2cI2g0430ig761VlOMHkWaqdG6oqwK2YV0UzxaW7peAGRPBMMCn5DFObzTBFHJ6+BD+Cl2d1UNT2WpbBeknvQrjAiNj9hdGqHmBOrtQynMbCxnE5uFEOPVmd22moRg3uIgyaFGNsbPaoMQlvVi7XVQaqAOxDlqr6INHLOiw541jJuZc5wsPQ7jkh9ocxnMwdSRbLbbo4IYsSO0yFyLsAgtxtbr/L61JIUXS24DMLQ+Z/cekpjt34J6Lm6+HPRRkpNHZOfsSXsg5tuE7u26Or5Kmi4XNQKim+NkdC7haYvyxRcibe4TS01Kniek3jMKy92GiZbnEX1jfqKwO3R9DfSHOnUgbXtBf/sdbOymGnpEslLHHGo5N/Qxj2xcbxez8VbN5iC/Te0XHyG12q7soICFCL7fV+iGSc9GwM0ir6PdUotihLYSpjIGtpJ3V0KB2NBdkuXixAVWwdZHiln/KYTAGuKtPTh13Rn5o5rkcgvJBOUy3AQUeHD4aztUciAwzNZXtt9N4SyqF51oBvC2cUbwOnokewXGnMSAN8h2quFmcoP7i5OyKAV8R24qi+gxNAiQgk6wE6UK+/ymcnlJFINfK/k1KN1N+EXAaC/CkodTCsTGIUfxApjeK0DPU2+WbiPORGUsSiUBAQmKdZ3iLtRAdQ+QOfcpAB5zQUSQW8lcw2G98oEx9s6c/ETd+GH9t/O3QDD8MEhnnFfR3lU1uCpkcrzJiIyZjLJiK6YjbC+vjm3+cfphsppSiuSaSKQqHfltTO/FXoILNFpBeazRNFhl12Z5KfgkKq+NuZVBDpXODfOsbwWhifV7sV+9hfoNwuOvPEhTQxWEsbIS2Y/nScZFEOrnEoCJX6Qqw68519QglMb4FA4fyM/D8WHgx6cMySf4cLgiZa0TMz2geD1SemU1N8GPw/3ilI5nV3/0yKJAtIUfY0CHNR0rfDCxWUm3yKS+8epBKCeuqYoAyepwV04Or8EWu7qJNtcLEWC+qqAgyddavtZ0NfFieIv0SITU+pFi9kOqYi/waDZJqs0ethpMJOJX05uSvjkQecTlyPmckECVgSLR477Q0s5QJXS1DsfuaKA79LRDn6wsF9kfUt73xdZR/6CtcD9+hlrybNJJsRfMdKhELo09V0+ueNdEG6teUiVq/geduLoH1YuVJJ1PCUtjxYbMnnvMwfEreJ2Rwq3SBXhgFBHOo/gqOrbLNXd4GogYDGM6gKvwvjdMt8tQoj4Cw9WpOJp5zPhv1djTNCFzgTvjCMev0LJAUetdH8j4dAH+BlzL0LYKly3pUIMFRIh0GZDEFeVa+QcBw/7aWVRFkHkC79Lk/PEfm+0wHyFQr4I9yiB2BPnxGpPPkqbWOonEes6Qnt6AY3Bjzg6NcYZNF2r6WFbypIzV1Uv4/iTQVT4cqcQ33xVInvsaPFjkXBOkMCZgtfMVpWDnNNDotenEJAAaAtYi62R+nopT5Of8EcvBVPBd7cRqiWb4etcNzYjRhWgoiquE9s4/otAOfZnJ3JUaUZwt5EhbgpbJ4ld22rfMqMTAK6rrymGA0KYd3A7uYCYSdQbyvK0S3hll9rkB6sfe0+k+NIdx//6kAYxlE0IbyQk7onxsXhlIxDhSD2bvn1BahfO9okrcIXiPmTuWvDqV8P7cycYSi1QB3Y9iWKi9RgL1/wxDYU0jiP3PcTf5gPLPNLoP5W1dexGgKHsBt1AX0sl6adSk/t+oIsDOyptfOGt1J5UxnJQyAOY/BPyYet+ZJYmd9RgAnRS2bwSITQRX0l2xA8mErS6IICBQKMGXoBjaf8WH/ewtHlA7ogW0jvnnkvQrSqjJZTrskv7CISZp0jR6y5EbeCGeKSt90Ld25zkierx/ZXQ7A1xkAklVc1pv6NgSm25LlZGJPlNwgJstRoJeM6F1N3tpBRcbUOCIg7AD2SJQrHxvsyLaWqiPaZ+08UJ0KV5heOewq0lIrNXLfUClDkH+T/87k9W0DjU/GXBmF6LYJPZ6Y33npYG0K9giwjzan4XvlblnP+RKnrspcKsU4gApWXL0EwonmAxhaxAm3TroWlZ/jjSS5qUombUWNbTYerV5B73OubVM4uIVf5xzZbyJU76accKJQmxQG81dn8ThutxYXQpf0rKZdAlTRfEX6R1LiC9wPMwr/dln+jvasIkZM/FhoFaaGo81JBPcNdSFSVjCEofpGtBvGJfZ1h0obZdYvWIED38Q0SqELhjARU93nQ6cbH0FaAzZCthofRSqIZW3YcydBNTRUtEvI6OD9AspwpF87qlq08lkUano9d12W3nHsBsv9LQ7F1CBU7tiFpa/fWLdSxuwBYSTh/QEQgHblEelicyYG1DsW+IuA54/0kswUVAyAnbqDM+rq/86bhYezDS4EuFlmYwwhsdRhK88FIgKOgQwO9YPvX+/A+++mQRXFrqZd7zDOyVB0GPhS8J3rqS+RZWLYUK4poMR2ht+uE/MKvm3Q/nvfFrr4s8d6xcqIrsY56P9GxeXs/MwOmm28QcM4uHTTbLA1Mit5UVnP9BH4Ax6NvPqTdcbHHygz6sk7ELKAW/+HHjRMkyk6zZe1COVhaTAffaPwWbYA+ygTFVVrS7Sc/ELPIPnchBpObFFp6OhHN3Cyg3erMp3DW5a8IkPk1G+YFN2rSHa9st9eGfl2HbwYQuho3Bnu6Y4Mp1c1M8KrC+YZeHCEDs/cYxzN9fZLoamm2w+T6aFCte1WTwo7v9MtmcIvefl8RE2LQ0n4rILFHis+3d7gNsFCCs3mcwfrCzDEeznj8ioupbbys/v7CAS7MadtNCcbRBhYVZD6mAcwfdEEwmxUHLB/d5KycPedlwuwVej6wxZ7phq/zblEK2m7l4wd3L8+3hekLJjSAMXz8Hyj5tHh7cY3/QTqx6wJjm5iXUV3JIB9F1dSTt0AVWoNAHDLFUqx8R4LCZ9kSzWv2Y0aTxg39E+ML9k2/g0G2ujGQQDj0p8thC47dvp1TmlYwt/AeCRo7RnuhSWpZ8W7m+AisvKCeAMRvzHVJ37gQw+c0YCfarEqr4HiVGrd5cbpH/uiM5aokiPXKydNrijmcPiRaM+IZtOQcQczS4aMdJZ7AXZopI2TpfWOKvyYDWHB30S2JbA5HcQ89ib2BPuaCEpH+diE/jq6LHjLX4VY1HEcVHIuz5NqOyF0jPCJ9xlGoSeFHm1g5BFH88UAT5awPicw7hcQq3RefeUuAUqinHqcsrFOE6VcjIO0KLKeA7fwPt5eNQo+ZMDSX8n3GnZOo+3D13i5nY3tDfJ9hekN+5zRy+TbyGZ+QSIehIRei/5YwXZzvW9Sc2UAOZp5B2ElNA/1PLUSyX+PJAS8hxslx7w284CjvK0OkgejUow5YJ/ZkSrmvO2Jfp6z42YtvYc3OgEUr7KkUKYK5Y+bdzMlgrGgz2Cp3dRIi7InRhuXukc67r2oRTvctqPYsT+PaNa+Iw5i5zQlUaGbtGbsJjOvA+icFG8ua/ni1PBYC/d+aStsB+OXCpoED+64r1NiaTiYvszVlPOhwUuJLworMDh+I9YAeb2oR2ievjIB9almbjr1gvc0qeq56nDn5RonfpHFUJRQzOOJ+uvY7edO5p6/lgs6FjdN3f8OtuS1CGH7vDii+ZFDIct4YTxpZAWzIPdkHuyD3LvtvqURjHsYb4qqAAD4IquP3wVZlqF2phJ6xm8VSge8KdPjZ/aB4pezL8wV6Wm+toZ6epGDssLpf3n8aBZgyIKThRKNr5VtTcYNWpp9DUPLdV08sj0yX0nJULIHVUQyOFHwG8n6DFA4tPltFHPT7jJe1WVgQywpS5JLOfug0YnAZI4g3UzndQV2+xxc+3B7aFCtLwG3MPgIMQWO/8ESN7yi46zjkKAL70gvjh70VVX3pkMHStw/3x6mihjDoOjzAl/Cd/788WnyB4Gzov0BhfK/r7c8AmkWnKwEduVs4G+W+1iLf0tZxZ3aCNSiG8hMNMWhuNLMM7+AngwfZCzS9S7M5qSCuvIvz1kIZIZT7jxT7GtfxnZA+cCEHMjXRSEjRZNUbAZofU/aPmsdI5hjii9gNXQBw6/clTvjO+5xg5kSaUXIEBV+UPDtaGGjR/DeEOu/cYIlA8pztP9cn7c40rPzDHdnfV8UP5hvLdeMgmH4N6Im3f7/d6+IKGr5ugCutFhYKV4heo00zo5GrAMpH+8+ukLojQJcdp2DtNpOjVU5KzdelAVmWD+54E7qZrzELBxRghai2took3J0J7QrqFutRkPqW4fr9xTYYv5GWEsiwd8f1+Lg5uEYXSBLoM/dnQk7/ma9MokIOp6dLqP73qI1aodu2alwAkQqMVonNoKhz7RhaIB9dlGeWEXeM0nhXTFYCXCPNl3OrgKWFdhKgGhUnxvl5SgF+1MAzPhEdJIsGp6UDYh8xnGYhKyX5zxbDxN2CUydyRCl8hA86/mnDmQF0N3ztayYCUQY+s7KKBmR7vnt3aR6YI+g/n/CaeA6C3fKArMTMx30rK2URYxFDcydU7d7Avi1Cn0z8HoCKUqkCeA7XMXmUvLcnknM35ayWba8J7uFxVQbvM13hvPQGTZmtx6BUtu/OyjVpue4bsxa30BQtFuyaPCE7w74J31LJxN0n+O9MbxGSMbMmuq8gqjF0yaP6iI5h5z6knpRxuJIp/4NbgvkbL9vh1PtgFITY62b9/vNu3CIJR2Xu7KCN0NTMz6PXFWb4oYIMk+I038aqmjKg/Cm99tdZSCvJ6tjnoxtJsQHETpjrW/ywrmcgEj10B36X7+iYOXt3HDut9xOQpSX2WH/nMex7A3pq+SzvgYUGqFHemr8/KXPeXZwQzWIZCsowXa1muYfD/6fZS/kXV9emEs/sxRVUbdbsY4glyUxzAg3aQo059vpcPm4zgoOdb3NChoPC0isrTFegZWbls0bbpMPrOueAq5FnvxSAABMjXzDoHJq92M/NZuDyqRVNSYXlQG/YUvp6gx68QHpU9K7r+yhrEMWaMAKHFc9kiQsnoY2943rJk129xRZ+/MgooyQgSO+JIbDul7qkjgvotH4VhEMv5JhfW2rCUEjM7rtj85AxwySrjDKnALQOcWSz5XmZtuDcNPp9AyLCCsnH7Ill0fow28AhcNHZ5L5wZiog7BAjJWjIx6sSvzdOg89mkAO7hhnPqFIBx2dvdGIo2cjv4/pWql5Vr+JZVj7Uyy+1U67FCkmgfdc3xzLJeUBYIBmNgF+BAtLkDRBONPWrDboGuGZjZ5fjcnSCKIpbNc/+z3RQF2mjAJbF5aiM0JyTiDq2++EExYJJQBaTouZz25SSEOXd19DksXAmXwLNb41RfpvhXlPRDmcutB8u7VtnYeotUHX8y/5TerwIXWO8gsfgxL777uZn6PMZ/n62wAGKWqkyM/kshj2okNItDFWP64nLYWzbvRdM3DeILJB2UgDVK1imOO4nglOjVU0gEw6QYaljH3JMliaPIOYuBGTXGQeLtNSVRMcF7FCEDHw6bYd8w9rTY9vU/w4pUox+jLY+mFc1ENoC/va0bfY2CnhHJOAw9Xh4mfroBXjFW222/KgrOFnylzM7cxmN7wKGIxGyKim0o1tQ8lMHuZRel7WEoxzP99E+s1xD0OgUkqVI1SZfa/r080Z7OALLrVlANd94oTl3WyaAH8dzecmpxuPgbQebWG0+KBQploZ2TvsIqnW/qhVDgR9j4awjm+bjpJYdw5RK7uUD/j5ZHGERa4V926aG4RBPHXxr+I46zd9aLkxHvir27CbMNMe3tQNsxgUpFqPJkxDFWtBwKlIAc1ETA12yxNOlRT3rD8X3B0XDHOpmwN2x48md907sET4ErM+7b1ENFdLBL2kruuIVfkH0H1nKXZr6FEAGPqHAKhFUaUwueq9ByIejPvOtnHWGOFn2cWNOoBkoOfQHI4ol7kn2EF7pcTIYFzIHUsUpTQGfraAk37Y2n1Zw/ex3O4SfQ8tnXrwiY3THItYmisOrjTM62sPVpjEbect/4igVTcdtKR7mQqdDAinuCX0uu3OqSxPTpUiQk0n4o8VSCOg00rhmNKVGEhbHF4Un98dE8yMUKaAZ0n0pxT7k7SY6IQmuNxWcExN8ZTngyfYkFeV7OfzZ+VHvNOd/mbl6xqzWtfep+/EY/QL/lTr9j1WbUNGoP/awSnjT8ZE9bAsn/IF7iNqO8PojDFrjjsZhCj+3ri1QnZJuPF5IxCXogo752fpLlItw3Wmw4M2Y9PM8dIF40UqIlQ9mTU5ZBjnumSX0Kw4/zwID4rjNqXPpmYUROPzi6JVm55ZCcfhgP5cdr1pTBgPZhSfqw9j/h8Nf7UUtVRSmiuFIbb07ZPt7j/oi7GL9hf7NxfWosoP3GIsM7xJUKNYzjoHUHynWZe84H4/s2Q9MOjEyI6jE4u4rQh1KDG3I5WUrlL4YVUfbueqOeRSyHdyD1YtcAsce07AzzV/gLDiGib+knSbw4SgF1eQAfXE1xmdaYnXutpa+1lqHsZYuxS8neS4mk42sfRcgqeWjh2kSgpTdx4mc1FU33hXNFyt0vNRlpq5qVJeQqmD6yKNjfi/F9yCb8FJkEuzuvhQBJNhdj5IjhBzkIG0HrEC/J3z05lM/iTUmEysQd9L/Xe3RmSUwo37wZy6prPGceNJfBpKTUeDnN0ueCIrIBKzDOzR17wX85QksqvBMEk6q5cTh0FP3NKTKft2n6XZmln6WGB/I05y3wNWdDvq/3MMSC8lKe07qp5RmqCgPDy8CprkCQK1lKKpD1+QuiSUjKbxFJydayj49kpymv3Rv43Fy6DAGIchZ55DN4Dzl9nsT2gns940Lu6WnwBQF6VPPinlLjzfz2Bhnlhp+XTIIthUkquhOuUpmen/As7ZlFbJEV9zJNzIXrDyqQwhPxRc55sA9ew45UNu+I69vKZ5DJW2p0/5mHfvm251QgMlqw4ZvxUph7Ul8Uz56UFkehXqo9j2qoB6jOW0qeXP0fcs6fGiMH5T+Cbiy3dW8M81pS63lYOcPXpJ5apGUdAw9jrRYZX4Y32kJbJD5unuswkgeTsGJIgJ/ARn4YjNHHU82C1dGTSdfcQjeV7o3Tm542q/eaRlET7O0fCXYD/Ry5GOHBskESeRxiaWB+ualztj4miLL2GA4BguFH+DkvTqCFyBUBYpaQ9/RVg/uJvziDfh+S0GqxaNtGx0QIfivUGITmcHL9X6dg7T2shyizOB3RI/isRofYvpgY4NdNkrmbZISdvEaaXT6lHyCHuY75bFOhqVdVLboMXfOk3Di1JNRT55fn05uuJB2CFFMPV6AyHqp/qbmTwTwhTorCVU8qDyS/q8wOm+jkA05dqIRiYWw3ke6hkhS1kwH6SZHsBTLuXXt9IRh24KAEDRv8NxtAdvFKx1dIt6okSI2pydX4Up16D0pYCq+IVZkb1rFQkpYeXU2ump/e8QaZdzdAAAAAAAAAAAAAAAAAAAAAAAAAAABFWElGugAAAEV4aWYAAElJKgAIAAAABgASAQMAAQAAAAEAAAAaAQUAAQAAAFYAAAAbAQUAAQAAAF4AAAAoAQMAAQAAAAIAAAATAgMAAQAAAAEAAABphwQAAQAAAGYAAAAAAAAALxkBAOgDAAAvGQEA6AMAAAYAAJAHAAQAAAAwMjEwAZEHAAQAAAABAgMAAKAHAAQAAAAwMTAwAaADAAEAAAD//wAAAqAEAAEAAABYAgAAA6AEAAEAAADRAAAAAAAAAA==;" vertex="1" parent="1">
          <mxGeometry x="-110" y="460.79" width="340" height="118.43" as="geometry" />
        </mxCell>
        <mxCell id="z-L5VVD6MoADbcWJSD5d-4" value="" style="shape=image;html=1;verticalAlign=top;verticalLabelPosition=bottom;labelBackgroundColor=#ffffff;imageAspect=0;aspect=fixed;image=https://cdn2.iconfinder.com/data/icons/boxicons-logos/24/bxl-bootstrap-128.png" vertex="1" parent="1">
          <mxGeometry x="20" y="550" width="90" height="90" as="geometry" />
        </mxCell>
        <mxCell id="z-L5VVD6MoADbcWJSD5d-5" value="" style="shape=image;html=1;verticalAlign=top;verticalLabelPosition=bottom;labelBackgroundColor=#ffffff;imageAspect=0;aspect=fixed;image=https://cdn1.iconfinder.com/data/icons/unicons-line-vol-5/24/react-128.png" vertex="1" parent="1">
          <mxGeometry x="-4" y="210" width="128" height="128" as="geometry" />
        </mxCell>
        <mxCell id="z-L5VVD6MoADbcWJSD5d-6" value="" style="outlineConnect=0;dashed=0;verticalLabelPosition=bottom;verticalAlign=top;align=center;html=1;shape=mxgraph.aws3.android;fillColor=#8CC64F;gradientColor=none;" vertex="1" parent="1">
          <mxGeometry x="420" y="220.5" width="90" height="107" as="geometry" />
        </mxCell>
        <mxCell id="z-L5VVD6MoADbcWJSD5d-7" value="" style="verticalLabelPosition=bottom;html=1;verticalAlign=top;align=center;strokeColor=none;fillColor=#00BEF2;shape=mxgraph.azure.sql_database_sql_azure;" vertex="1" parent="1">
          <mxGeometry x="620" y="298" width="100" height="112.5" as="geometry" />
        </mxCell>
        <mxCell id="z-L5VVD6MoADbcWJSD5d-8" value="" style="shape=image;verticalLabelPosition=bottom;labelBackgroundColor=default;verticalAlign=top;aspect=fixed;imageAspect=0;image=https://miro.medium.com/v2/resize:fit:480/1*qMC7g40mcQmeI3r-hMjY8Q.png;" vertex="1" parent="1">
          <mxGeometry x="407.5" y="462.5" width="115" height="115" as="geometry" />
        </mxCell>
        <mxCell id="z-L5VVD6MoADbcWJSD5d-10" value="" style="shape=image;verticalLabelPosition=bottom;labelBackgroundColor=default;verticalAlign=top;aspect=fixed;imageAspect=0;image=data:image/png,iVBORw0KGgoAAAANSUhEUgAAAMoAAADKCAYAAADkZd+oAAAACXBIWXMAABcRAAAXEQHKJvM/AAAAB3RJTUUH5AoOEQgK3oY29wAAFo1JREFUeNrtXXl0FFW+LsX1OY64PD3PN+/N4804Z5QZDjMZ6lYnEYPggsuAA/GNjm9Ej0aSupWFkLBDAEFAEFAUFBRcAFHZFJF9UdA8NgFBkEUW2WIgQiB7wvf+uGmrA93pru6q6uqq3++c73BO0t2h7v2+/t17f8uVJDIyMrJ4GjT2K3AlDZw9AY3lQ2PjwdksqGwVONsEzvaCs2Pg7Aw4QxCcB2dl4MohcLYDnBWDsyXg7G1wNhJc0cDlrlAVhjzfDTTiZM4WRG7Sv0GVH4LKBoOz2eBsMzg7G4L81kFjpeBsHbgyDVwuhMruQWbq9TRDZPaLoijtMqiyDyrrB84WgrMjtgvCOPaCs1ngch6yWRKKpEtpJsnMF0f2X/4ATS4AZ59CZeUJIIxwKANX5kGTObKU22mGyaITRnp6C2SxVGjyKHC2ywXCaB4qOwCVTYSmdEJR2mXEALLQ4pCkS5DFUqGyKeDslOvFERrHocmvIduXTKwg0wWS5fstVDYcKjvgYXGEwh5wNghq8q+JKV5dWmnKw9Dkz8BZAwkiLBrA2VKo8kN0EOAFgWQkXQdV6QPODhL5o4W8D1zOQ0bSdcQotwmkZ/LNIkDHThPRTTsAKAdXRqNn8s3EsEQXCE+5FVx+GZxVErktQ4XIOEi5lRiXaALJTL2+8Wi3gohs25KsGlx5iVJpEkEgeb6rG/cgZUTceAYzWW9ona8kRjpymSV3pSNepwUxlUeJmU6Kg3D2KZHTsVgN7vs9MTVeAilqfQU0NlSsjYmQDkcVuDyElmN2i0RV/gyNbSMCJhx2IatdO2Kw9QHDyxs36zVEuoRFHTR5FIpaX0GMtsSLyL8Dl7cQ0VyDTdDYHcRsM0Wise4UVXfp3kVTniWGxyqQ3m2uAWdvEaFcf5T8JvJ8VxPjo4uLtAJnW4lIHoHGtiGb3UbMN7QfadcenJUQgTwY1VfbdSQFRORJWA44qyPSeBa10OTnSAkhA4jSpY2ZvkQWAsDZBKSntyBlNDnV6nwlOHufyEG4YN+yAD3SriKFSJKE3LYtwdlaIgYhxInYKhSmXOv1SPtNdLJFiADFUOUbvSmSnsk3gyvfEAkIEWI7MpJu8pZIctgtJBJCVLEWr3gW5LBboLLdNPGEKLHZ9Y3HkZF0HSU2EkzARtdu8JHnuxpcXkOTTDDtNMxthWBIT28Bzj6iCSaYjNmu6lwJjU2iSSVY5FnGuEQkMqcJJVh7GpbguWHQ2L2U4EiwJ5HSd1diiiRLuZ2qEj2Aod2Bd4cBi6cBaz8A1s0DlkwH5o4Hxj8H5KTa9X8pQVa7/0gskYjKxB1EJJdiwIPAoteBU8cQ1moqga2rgfEZ9sRYEqlSElyZQYRyIXq1BxZPBWqrEZV9vx144R/+KLtVm/spCbIvUZ4lUrkQwx8FThxEzFZXC8ydYPXm/jGHexLfH+mKBRdiYhZQdQ6mWH0dMLSb1f/n0+ByK4dWKLa+glLmXYgXnwKqK0wSST0wrLv43PwOwLwJVi7Dih15wzHEjVZELDehz73AmVLzPElRN10k+7eJn3/wooVLMGWgs0Siyj5wVk/kchk2LTNRJH+7WCQAUFOl/8581ID7/uigZEe2h4jlMox92nyR9L5bnHxdaJtXWJtp7IQlGDgbRsRyIb75wh6RAMD5BmBYupX5YP3iK5Jsdhs4qyJiuTCgeP58jMfAdcCQCETit2XvWPlMlXE9BYOmrCBiuRCzR8UukkBPcuCb8O85fsDi51LmxSsr+DEilUuxZUWMnuQR8TkFHSMTid/63W/tc2X57rdXJD3SrgJXDhGpXIoje60VybF9wOCuIkIfaBMzrX6272y9wAic9SVCuRiVZ631JJuWidflpAKV5frPZwy24/ly7GoQcROlz7scNVUximRH86+vKAc0Rbx+55f6z2eNsKPlUSk09ksbgotsIpHJ5TCS11VXCwzpGrlIAHGilpMi3vP1Krs9CsCVIqsrFn9F11V7AMf2Ry6UUf9sFEkn4ODOyN5zcKf+t374Tv/5K9yuZzyLHHaLhXsTupbBEwj8lg9n/voSI0LxC2Jwl6bxmn6d7WxKMdbCNqiUQu8JfPRS5EKpqdAJXtAxMrH4Xx8oyJKDdj/nOUvas0JlY4lEHsHgrsY285Xn9BhIQSfg0LfNv/7kUWDPpqY/WzkzHs86yFyRZKZeD87OEok8hAuJHM6qAsXSMfJlmH9zP+zROLQ5YqXo3eYaMzfx+UQej+EVbjyWEuhZCjsBh3dF9r6vV8WxJ5iSbVLlonQpONtP5HFTk4g0YEJPcRz77jDgZRXITwv8phX/7lhnXCxVF4pld/Ovr622NnM4PPaa0pYVXO5K5HIBclKEML7bKGIfF23Kq4DiReIkyv+efvcD5WXGxRK4wS+8p3mxfDjOCW1Z7zEjXWU5ES2RBZIqcqpOR1jSW1stvMzPjSUyo2tPVHUO6Hu/LpbAeInfihf5A4DxHqf5sXqTVuDsPBEuQTGtL1B6JHJylxwEPp0KTO7V1LO8woHamtjE0ufepmLZuESPzscfdTF1mQSXhxDhEgmN38wDH26aQxVJGsqc0UC2L9TpkCjmOnk0drEc3i2a6Gk+p43dgFiWXd8R+RIMb/YHKs5ETuTqCtEj2L/J/3iyaHTXUC/2J5uWASP+Ln6fmwqsniNKfKMVy89iVJw2druibLLNUol4CYSCTsC2NcYIXF0BvPSseH//B0JvumtrgKl99L81LB1Y/T5w9qfwf6OhQdTfT9KcP4bZLCmaSPwUIqDD4U9VH/1PY3uRi0TyYPh2qdWVwKC/XnxQMO4Z0bn+87nC+2xdDXy5UHS3n5IvjogTZ0wnRBM7OUFkTIT69heCH/eG6zA/oWfjEXDnyLOFV7zn9vE8biimAk2+k0jocOSmiuNVo2bUkwTagR3uH9dsX7IRoYwjMjpxqcV0ghtp2mCGSADgyB4PjLE8yshpF6WsOHU/Mup/gbLjsYukJIorHP5vsRfGelekCZB3EDGdGkDsZ7ye3SyRAPoxstuhyr+L5LYsjUjpQHw4TrQejUUkA2IQycpZjbGW9l4Y75xIPMoCIqaTllw+YM2c6MhtlkiWvyOWftk+oN8DXhj35nO/kJ7eApyVEUEddLK1eUX8RNLQoN9fovmA9QuAvDu9MPanmj0mRla7dkRQh6DvfeEbW0caJzn+vfHPqK0R6TB+wW5a2rR7ivs9+Z+aicYrvYikDkD/B4Gj++InknOndW9U2AnYu8UrAccAyHnNHQu/T0SNM4Y/Gt3x74Ui6f9AdCIpPaJXHA55pGms5cWnPORR5DkUP3EqRj8ZWaJhRCI5YPwzDuwQSz7OhCjKT8WznVC8sT/UFXM3UJFWHAOJEzOjv6LaDJFsWwP0ukt8xqTsi28C/nCs1+bmfNC+X+DyfUTcOBVaTe1jPLHRTJGsmaMXUr33vKhFCbTyMl1E3voS6xRMKIVE3Djkbb014GJi2iWS8+dF6a/fs306NfjrFkzy5hypSp9g+5O3iMA2Y8bg+ImkrhaYPlCvK9nwWfDXlR33pjcR3VmmB7srfj2R10bMGhFdSooZIqk4o78/vwPw7VehXzutr3fnSJXXB/MoJ4nANu1JZo+KTST+K9wGPgz8+IOx9588Ko6g/RH7YG2E/LaruOky0Xs4FezEi4hsB+ZOiP5q6lhFcnCn3phu5ONA2YnmG0IM6kLzFXjyBVVhRGIbsGBS9LftxiqSXcVimeXv0xXuKHr2KJov4U2VwGVXNxoUi7EwjiL56mMgO1m8/91h4dsNffOFHt8hoXSnGhS7sHhafEQSePzrF2u4Zd+p46IFKs2bf1+pBXqUF2hALMLS6fERSX2tfnlodjKwbn5kGcOjn6Q5a4qRgcVa79CAWJCasvp9c0Qy6K/GRFJZrr83Py3y9qqzRtK8XexRZgR6lKU0ICaLZO2H5onESHO706XAC0/o6frh7ifxVuOIaLAkUCjFNCCm9YWKrt+WGSI5uk/v5jjiscjT9Y/sEX2Haf6aDzqCs500KCZhzJPxEcnuDUDvuxszkbPE8itSD3Rhq1RCILYHCuUwDYgJyy0tIBvYTpEUL9LvGnmzf+R3mVRX6Ms0Qih8HyiUn2hAYhTJ5x+JeIU/Xf31fHtEsuwdXaBGWhrV14m6k8DUGkKwOEppoFBqaVBiFElgcO9nsfS2TiQN9aJBt39f9PlcY/GV94bT3EWGykCh1NOAmCASv325UBfLlALzRVJdCUzOa2xIlyYi6UZs8VSauyiF0kADYpJIIhVLtCI5UyruQ/Gn2B/61phI1i+g9JQYhEK18maKJJhYXi+IXSTH9usZvUO7Gc/5+nqlWKZpNIckFKeIJJRYohXJnk3i+jnOxC1XRru1bP/cSbfw0h7F9SJZN8/40e+6efpyx0/2QV0iF8mWFXor02l9jd/7vnuDV1qhWoGKwPsay2lATBZJQwNwbJ/wKLNGAgUd9M/KSY78KuqlM3SRzX/ZeGXk99tFvhfNYbQoCfQoR2lAYhTJmVLRG+vj10RkPL9D8585NL35lPeGBr14KtsHrP3AuCc7vAso6EjzFxv20n3ykWLNBSStqQL2bQVWzhSR8EhLZov+Ju5x9wf5hj8aXCw1leJGXc7EkimajvY/fAf0uZfmLmbIWwKFsokGpBkULxKYM1pcDeevFjSCwV305daqWQHi6d5ULOWngDE9xO/63CsEGY1IqPjKLKwNFMpKGhALMajLxXuSL+bqe4+hjZ7lxx+Aod1171NyKLrlFonEzHqUTwJLgWfSgNgokmCnYYO66kulaI5/abllFd4IPPUaSwNiAQZ3FTXoQTf/J4Fta4ERjzdNTHyjMLoLTQ/vJk9ijUcpCiwFzqcBMRl97wNOHdPbl36/HVg1W7QxHdwldIO8GYNJJI468ZSfC2zQ/TgNisko6ATMGQOMfVr09g32mvwOoh5k9ijgg9G6WN4daixOQkfAVoYGHg5YerVrT4NiMXJSgKJuonv9hsXBl1crA07D3hoUXiR7t4SP1xBiLO1mSQEeJeVWGhSTl12jnwRezRGR9VMGrpqLVCw7vwLy2tNYW43cti0vbNJ9hgYmxqXW6tnGqhMjEsvA4J0cKXfLDhwL1s2ego5WHAGbLZbNyykL2D6sDiaUWTQwDhFJKLFsXBJdVgAh2qPhyRcLRVMG0sAYxJBHjO0/orHl7+inYVSZaHNPL5YbxKMonWlwHCYSQKTVj3uGxjsuQmnXPohHufNfaXAcJpLqCj2LmGA3GlCYcm3wu+apEZ6xLGAr7acSvYkEIR7YIYUycDafBiiMJymzwZPs3wb0u5/GO777k+nNCIXumo+7J1k3P3TKC8FOoaihhaL5ZBqkEJWJVnuS6gqR3kLj7ZDUlb/8IbRQ0tNbgPoQ2+9JThwU1zTQeDumoQQk6RKpOQNni2igbPQkxYvobhLnYbYUzqAqvWigbBBJRbloTEFj7cD9ifJMeKFo7A5abnXRi66ssD2bxOWlREqndl5pJUVi4GyPtz3JCWsEUl8rrrD2t1glOBHbpUgNmjyOPInJdmSPaHVERHQ6hhkQiu8u8iQmWV2taHpHWb+JV9EYVihFaZdBY6XkSciLeAyHwx4LB9mnvEqeJNrgYSUwbyJ5kcSLxk+UjBqyfckkkihs29qA66ipfsS1y64LvIp7m3cP7mrucut0KTCtH5EtcbFTitbAlSLXepKfSsw78l3xHkXXE75/l1wQg1DkVnDbRahmepLdGyhHyx2oB0+5VYrFXJX7NbSbOZ6k5BAwuRcRzD1YKMVqUNkDJJJGqzoHzH+F6kXcVxvfMXahSNIlCZ/SEqtI6utEQVX/B4hULtzEG46dNJMome9JkZw/D2xdDQxLJ0K5N1M4UzLLUJhyLTgrSzyRdAd++jE6kRzYAUzoSURyN8qQlfYLyUwDZ8M8IZJj+8RlPkQiDyDgkiDThKLKN4Kzs64VyaljwOwXxFXVRCIv4AzyfDdIVhg0Nt51Ijl1HJg5gvKyvIeRklWGnsk3Q2Xljn343h0jF0nFGeCDsXTU602cQ8/kmyUrDVx+3rlpCEzUoUdiY5+mxEXvnnSNkKy2xhOwEselpSydLkpsNQa82a95kTTUU2d479bD/4iMpOskO8xRcZVBXfRbrr76WBfL1D7Ni4VytLya/Mgluww90q4Cl/c5SiR+CxTLG4WhhTJnNJHGe9iDjKTLJTsNqvyQ40QSTCyTewV/zeblRBzvLbu6SvEwcOUTx4kkUrGcOUnE8RYWS/EyZLb7b3BW5TiRBBVL3sW/H9qdCOQNVETc1M66jb2Ndz9GU3T15cLQYpk1gkjkjSVXoRRvQ0bS5eBss6MrE/1i4QyYErAM2/AZkcj92Gr7Bj70Eoy1AWc1lj7w1tWxFV0FiuW1Rs9ybD8Ryd2epBqZrI3kJAOXh1j60AWdgBefAl7NAaYPBOaMAT6ZDKycCXz1CbBtDbB3C3B0n0hjqalqXixjelAavfsj8H0kpxkyki6Hpmxw1EDl3Qn0fxB4/u/A+Axxw27/B4lA3sCXSE9vITnRGk/BTtMkEeLrSVg5stltkpMNXE6nySLEGU9IiWDQ5Kk0WYQ4ZZBPkhLFkOe72pYjYwKhKTZC63yllEiGnKT/dFw6PsHd6fO5yn9JiWiNHfFraBIJFqMWXEmTEtnA5Z40kQRrT7nkJyU3GDh7kSaUYFEh1ijJLSbasiozaGIJJvflmoki6VLJTdaYPLmEJpdgEpahqPUVkhsNGvslONtIk0yIMVbyBTKS/kVysyEz9XqKsRBiwGbbuqjEXSy5bVuCs0006QTDIlHlGyUvGTKSbgJn22nyCRGiGLltW0petMbG38VEAkLYlHmvLLdCiqV3m2ugyZ8RGQghsByFKddKZJKEotZXQJPnECkIF+Btx9S7O0Ys6ektwJWXiByExiTH5027W9GdsRblWZHkRmTxbEMIjT1NSogoN0xJAZd/JNJ4MFVe891FCjDkWZJ/A86+JvJ4JdqubEBP378T86MRS4+0q8DZG0Qk12cAv4YeaVcR42Pft/wDiXLRKsEIToMr/0MMN3Xf4vu94/qGEWIptloPNfnXxGxL4i1pl0FV+lB5cUKjClwpoviILakvyp/B2Q4iXQLma2UptxOD7Y7mc2UAOKskAjoe56DJBY5tceqNvYvcCpx9SmR0bLnuJwnbRsidgmHdwNl+IqZjsAua0omY6dTlmMpywdlJImrccAIqU2mzngiCyW3bElwZDc4qiLi24Qw4G4SstF8QAxNNMDnsFqhsDAUrrRaIMhoZSTcR4xL+OFm+ESobDrq7xUyUgCsDPFue62rBFKZcC5WpUNluInrU+BacZbm+XRCZv3OlfB84WwTOGoj8YVEHlX2IbNaBiqm8KhqN/Qqc9W38piRRNMUOqKwfpb+TXSAanwyuvALOfvCwOI5Ck8dB8/2JGEEWwQFAu9bgSpFHGvXth8omIouluq7pNZmdnib5N+AsA5y975IS5ZPgyjxoSjayfL+lGSaz5iAgk7WBJnNw9nbj3sbJBwLnwdkecDYbnOUgk7Uhr0EWv2NnrqRBZblQ2RRwthqcHY9Dl/dScLYOnL0FTS4Al++mOAeZ8wWU27YlslkSNOVhcLknNDYUXJkmjqXlNY37n/0ieMfKgkKQfz842wpVXi+6aiozwOXnwRUNqvwIVIUhz3cDjTgZGVlc7f8BEbPJjkKu8uIAAAAASUVORK5CYII=;" vertex="1" parent="1">
          <mxGeometry x="120" y="30" width="110" height="110" as="geometry" />
        </mxCell>
        <mxCell id="z-L5VVD6MoADbcWJSD5d-11" value="" style="shape=image;html=1;verticalAlign=top;verticalLabelPosition=bottom;labelBackgroundColor=#ffffff;imageAspect=0;aspect=fixed;image=https://cdn4.iconfinder.com/data/icons/ionicons/512/icon-social-github-128.png" vertex="1" parent="1">
          <mxGeometry x="277.5" y="20" width="130" height="130" as="geometry" />
        </mxCell>
        <mxCell id="z-L5VVD6MoADbcWJSD5d-12" value="" style="image;points=[];aspect=fixed;html=1;align=center;shadow=0;dashed=0;image=img/lib/allied_telesis/computer_and_terminals/Personal_Computer.svg;" vertex="1" parent="1">
          <mxGeometry x="270" y="460.79" width="103.3" height="140" as="geometry" />
        </mxCell>
        <mxCell id="z-L5VVD6MoADbcWJSD5d-14" value="" style="endArrow=classic;startArrow=classic;html=1;rounded=0;entryX=0.5;entryY=1;entryDx=0;entryDy=0;" edge="1" parent="1" source="z-L5VVD6MoADbcWJSD5d-3" target="z-L5VVD6MoADbcWJSD5d-5">
          <mxGeometry width="50" height="50" relative="1" as="geometry">
            <mxPoint x="60" y="399.28932188134524" as="sourcePoint" />
            <mxPoint x="60" y="349.28932188134524" as="targetPoint" />
          </mxGeometry>
        </mxCell>
        <mxCell id="z-L5VVD6MoADbcWJSD5d-29" value="JS Event&lt;br&gt;Handler" style="edgeLabel;html=1;align=center;verticalAlign=middle;resizable=0;points=[];" vertex="1" connectable="0" parent="z-L5VVD6MoADbcWJSD5d-14">
          <mxGeometry x="-0.0424" y="-2" relative="1" as="geometry">
            <mxPoint x="28" as="offset" />
          </mxGeometry>
        </mxCell>
        <mxCell id="z-L5VVD6MoADbcWJSD5d-15" value="React Context API" style="aspect=fixed;sketch=0;html=1;dashed=0;whitespace=wrap;verticalLabelPosition=bottom;verticalAlign=top;fillColor=#2875E2;strokeColor=#ffffff;points=[[0.005,0.63,0],[0.1,0.2,0],[0.9,0.2,0],[0.5,0,0],[0.995,0.63,0],[0.72,0.99,0],[0.5,1,0],[0.28,0.99,0]];shape=mxgraph.kubernetes.icon2;kubernetesLabel=1;prIcon=api" vertex="1" parent="1">
          <mxGeometry x="180" y="250" width="50" height="48" as="geometry" />
        </mxCell>
        <mxCell id="z-L5VVD6MoADbcWJSD5d-16" value="" style="endArrow=classic;startArrow=classic;html=1;rounded=0;exitX=0.5;exitY=0;exitDx=0;exitDy=0;entryX=0.5;entryY=0;entryDx=0;entryDy=0;entryPerimeter=0;" edge="1" parent="1" source="z-L5VVD6MoADbcWJSD5d-5" target="z-L5VVD6MoADbcWJSD5d-6">
          <mxGeometry width="50" height="50" relative="1" as="geometry">
            <mxPoint x="200" y="200" as="sourcePoint" />
            <mxPoint x="250" y="150" as="targetPoint" />
            <Array as="points">
              <mxPoint x="60" y="190" />
              <mxPoint x="465" y="190" />
            </Array>
          </mxGeometry>
        </mxCell>
        <mxCell id="z-L5VVD6MoADbcWJSD5d-17" value="" style="endArrow=classic;startArrow=classic;html=1;rounded=0;exitX=1;exitY=0.5;exitDx=0;exitDy=0;" edge="1" parent="1" source="z-L5VVD6MoADbcWJSD5d-5">
          <mxGeometry width="50" height="50" relative="1" as="geometry">
            <mxPoint x="170" y="360" as="sourcePoint" />
            <mxPoint x="180" y="274" as="targetPoint" />
          </mxGeometry>
        </mxCell>
        <mxCell id="z-L5VVD6MoADbcWJSD5d-30" value="Re-renders&lt;br&gt;Components" style="edgeLabel;html=1;align=center;verticalAlign=middle;resizable=0;points=[];" vertex="1" connectable="0" parent="z-L5VVD6MoADbcWJSD5d-17">
          <mxGeometry x="0.0476" y="1" relative="1" as="geometry">
            <mxPoint x="-3" y="-23" as="offset" />
          </mxGeometry>
        </mxCell>
        <mxCell id="z-L5VVD6MoADbcWJSD5d-18" value="" style="endArrow=classic;html=1;rounded=0;entryX=0.5;entryY=1;entryDx=0;entryDy=0;" edge="1" parent="1" target="z-L5VVD6MoADbcWJSD5d-10">
          <mxGeometry width="50" height="50" relative="1" as="geometry">
            <mxPoint x="175" y="190" as="sourcePoint" />
            <mxPoint x="190" y="210" as="targetPoint" />
          </mxGeometry>
        </mxCell>
        <mxCell id="z-L5VVD6MoADbcWJSD5d-31" value="API Endpoint&lt;br&gt;Documentation/&lt;br&gt;Testing" style="edgeLabel;html=1;align=center;verticalAlign=middle;resizable=0;points=[];" vertex="1" connectable="0" parent="z-L5VVD6MoADbcWJSD5d-18">
          <mxGeometry x="0.0133" y="3" relative="1" as="geometry">
            <mxPoint x="-42" as="offset" />
          </mxGeometry>
        </mxCell>
        <mxCell id="z-L5VVD6MoADbcWJSD5d-19" value="" style="endArrow=classic;html=1;rounded=0;entryX=0.5;entryY=1;entryDx=0;entryDy=0;" edge="1" parent="1" target="z-L5VVD6MoADbcWJSD5d-11">
          <mxGeometry width="50" height="50" relative="1" as="geometry">
            <mxPoint x="343" y="190" as="sourcePoint" />
            <mxPoint x="380" y="210" as="targetPoint" />
          </mxGeometry>
        </mxCell>
        <mxCell id="z-L5VVD6MoADbcWJSD5d-32" value="CI/CD" style="edgeLabel;html=1;align=center;verticalAlign=middle;resizable=0;points=[];" vertex="1" connectable="0" parent="z-L5VVD6MoADbcWJSD5d-19">
          <mxGeometry x="-0.3166" relative="1" as="geometry">
            <mxPoint x="17" as="offset" />
          </mxGeometry>
        </mxCell>
        <mxCell id="z-L5VVD6MoADbcWJSD5d-20" value="" style="endArrow=classic;startArrow=classic;html=1;rounded=0;entryX=0.5;entryY=1;entryDx=0;entryDy=0;entryPerimeter=0;exitX=0.5;exitY=0;exitDx=0;exitDy=0;" edge="1" parent="1" source="z-L5VVD6MoADbcWJSD5d-8" target="z-L5VVD6MoADbcWJSD5d-6">
          <mxGeometry width="50" height="50" relative="1" as="geometry">
            <mxPoint x="550" y="510" as="sourcePoint" />
            <mxPoint x="600" y="460" as="targetPoint" />
          </mxGeometry>
        </mxCell>
        <mxCell id="z-L5VVD6MoADbcWJSD5d-35" value="Credentials&lt;br&gt;verification and&lt;br&gt;token generation" style="edgeLabel;html=1;align=center;verticalAlign=middle;resizable=0;points=[];" vertex="1" connectable="0" parent="z-L5VVD6MoADbcWJSD5d-20">
          <mxGeometry x="0.1481" relative="1" as="geometry">
            <mxPoint x="45" as="offset" />
          </mxGeometry>
        </mxCell>
        <mxCell id="z-L5VVD6MoADbcWJSD5d-24" value="" style="endArrow=classic;startArrow=classic;html=1;rounded=0;entryX=0.794;entryY=0.584;entryDx=0;entryDy=0;entryPerimeter=0;" edge="1" parent="1" target="z-L5VVD6MoADbcWJSD5d-3">
          <mxGeometry width="50" height="50" relative="1" as="geometry">
            <mxPoint x="290" y="530" as="sourcePoint" />
            <mxPoint x="410" y="480" as="targetPoint" />
          </mxGeometry>
        </mxCell>
        <mxCell id="z-L5VVD6MoADbcWJSD5d-28" value="User Interaction" style="edgeLabel;html=1;align=center;verticalAlign=middle;resizable=0;points=[];" vertex="1" connectable="0" parent="z-L5VVD6MoADbcWJSD5d-24">
          <mxGeometry x="-0.4104" y="1" relative="1" as="geometry">
            <mxPoint x="-22" y="-11" as="offset" />
          </mxGeometry>
        </mxCell>
        <mxCell id="z-L5VVD6MoADbcWJSD5d-25" value="" style="endArrow=classic;startArrow=classic;html=1;rounded=0;entryX=0;entryY=0.75;entryDx=0;entryDy=0;entryPerimeter=0;exitX=0.824;exitY=0.042;exitDx=0;exitDy=0;exitPerimeter=0;" edge="1" parent="1" source="z-L5VVD6MoADbcWJSD5d-12" target="z-L5VVD6MoADbcWJSD5d-6">
          <mxGeometry width="50" height="50" relative="1" as="geometry">
            <mxPoint x="510" y="360" as="sourcePoint" />
            <mxPoint x="560" y="310" as="targetPoint" />
            <Array as="points">
              <mxPoint x="355" y="301" />
            </Array>
          </mxGeometry>
        </mxCell>
        <mxCell id="z-L5VVD6MoADbcWJSD5d-34" value="Receive JWT token" style="edgeLabel;html=1;align=center;verticalAlign=middle;resizable=0;points=[];rotation=-90;" vertex="1" connectable="0" parent="z-L5VVD6MoADbcWJSD5d-25">
          <mxGeometry x="-0.2008" relative="1" as="geometry">
            <mxPoint x="-19" as="offset" />
          </mxGeometry>
        </mxCell>
        <mxCell id="z-L5VVD6MoADbcWJSD5d-26" value="" style="endArrow=classic;startArrow=classic;html=1;rounded=0;entryX=0;entryY=0.5;entryDx=0;entryDy=0;entryPerimeter=0;exitX=0.525;exitY=0.036;exitDx=0;exitDy=0;exitPerimeter=0;" edge="1" parent="1" source="z-L5VVD6MoADbcWJSD5d-12" target="z-L5VVD6MoADbcWJSD5d-6">
          <mxGeometry width="50" height="50" relative="1" as="geometry">
            <mxPoint x="240" y="340" as="sourcePoint" />
            <mxPoint x="290" y="290" as="targetPoint" />
            <Array as="points">
              <mxPoint x="324" y="274" />
            </Array>
          </mxGeometry>
        </mxCell>
        <mxCell id="z-L5VVD6MoADbcWJSD5d-33" value="Login/Sign Up" style="edgeLabel;html=1;align=center;verticalAlign=middle;resizable=0;points=[];rotation=-90;" vertex="1" connectable="0" parent="z-L5VVD6MoADbcWJSD5d-26">
          <mxGeometry x="-0.4749" y="1" relative="1" as="geometry">
            <mxPoint x="-16" y="-11" as="offset" />
          </mxGeometry>
        </mxCell>
        <mxCell id="z-L5VVD6MoADbcWJSD5d-27" value="" style="endArrow=classic;startArrow=classic;html=1;rounded=0;exitX=1;exitY=0.75;exitDx=0;exitDy=0;exitPerimeter=0;entryX=0;entryY=0.5;entryDx=0;entryDy=0;entryPerimeter=0;" edge="1" parent="1" source="z-L5VVD6MoADbcWJSD5d-6" target="z-L5VVD6MoADbcWJSD5d-7">
          <mxGeometry width="50" height="50" relative="1" as="geometry">
            <mxPoint x="750" y="290" as="sourcePoint" />
            <mxPoint x="800" y="240" as="targetPoint" />
            <Array as="points">
              <mxPoint x="510" y="354" />
            </Array>
          </mxGeometry>
        </mxCell>
        <mxCell id="z-L5VVD6MoADbcWJSD5d-36" value="" style="shape=image;verticalLabelPosition=bottom;labelBackgroundColor=default;verticalAlign=top;aspect=fixed;imageAspect=0;image=https://cdn-icons-png.flaticon.com/512/2164/2164832.png;" vertex="1" parent="1">
          <mxGeometry x="610" y="150" width="100" height="100" as="geometry" />
        </mxCell>
        <mxCell id="z-L5VVD6MoADbcWJSD5d-37" value="" style="endArrow=classic;startArrow=classic;html=1;rounded=0;entryX=0;entryY=0.5;entryDx=0;entryDy=0;exitX=1;exitY=0.25;exitDx=0;exitDy=0;exitPerimeter=0;" edge="1" parent="1" source="z-L5VVD6MoADbcWJSD5d-6" target="z-L5VVD6MoADbcWJSD5d-36">
          <mxGeometry width="50" height="50" relative="1" as="geometry">
            <mxPoint x="470" y="220" as="sourcePoint" />
            <mxPoint x="520" y="170" as="targetPoint" />
            <Array as="points">
              <mxPoint x="510" y="200" />
            </Array>
          </mxGeometry>
        </mxCell>
        <mxCell id="z-L5VVD6MoADbcWJSD5d-38" value="" style="endArrow=classic;startArrow=classic;html=1;rounded=0;entryX=0;entryY=0.25;entryDx=0;entryDy=0;entryPerimeter=0;exitX=0.172;exitY=0.054;exitDx=0;exitDy=0;exitPerimeter=0;" edge="1" parent="1" source="z-L5VVD6MoADbcWJSD5d-12" target="z-L5VVD6MoADbcWJSD5d-6">
          <mxGeometry width="50" height="50" relative="1" as="geometry">
            <mxPoint x="460" y="430" as="sourcePoint" />
            <mxPoint x="510" y="380" as="targetPoint" />
            <Array as="points">
              <mxPoint x="288" y="247" />
            </Array>
          </mxGeometry>
        </mxCell>
        <mxCell id="z-L5VVD6MoADbcWJSD5d-39" value="Log Prescription Data" style="edgeLabel;html=1;align=center;verticalAlign=middle;resizable=0;points=[];rotation=-90;" vertex="1" connectable="0" parent="z-L5VVD6MoADbcWJSD5d-38">
          <mxGeometry x="-0.4811" y="-2" relative="1" as="geometry">
            <mxPoint x="-20" as="offset" />
          </mxGeometry>
        </mxCell>
      </root>
    </mxGraphModel>
  </diagram>
</mxfile>
